<svg width="82" height="82" viewBox="0 0 82 82" fill="none" xmlns="http://www.w3.org/2000/svg">
<path d="M24.2289 69.7802L18.6724 79.8058" stroke="white" stroke-width="4" stroke-linecap="round" stroke-linejoin="round"/>
<path d="M57.5767 69.7802L63.1331 79.8058" stroke="white" stroke-width="4" stroke-linecap="round" stroke-linejoin="round"/>
<path d="M40.9025 74.2482C59.3187 74.2482 74.2479 59.3189 74.2479 40.9027C74.2479 22.4865 59.3187 7.55725 40.9025 7.55725C22.4863 7.55725 7.55702 22.4865 7.55702 40.9027C7.55702 59.3189 22.4863 74.2482 40.9025 74.2482Z" stroke="white" stroke-width="4" stroke-linecap="round" stroke-linejoin="round"/>
<path d="M8.67315 32.0138C6.11316 30.0951 4.15928 27.4803 3.04464 24.4815C1.93001 21.4827 1.7017 18.2265 2.38695 15.1015C3.07219 11.9765 4.64207 9.11467 6.90925 6.85743C9.17642 4.6002 12.0452 3.04292 15.1731 2.37141C18.3011 1.6999 21.5563 1.94252 24.5501 3.07032C27.544 4.19813 30.1502 6.16348 32.0577 8.73188" stroke="white" stroke-width="4" stroke-linecap="round" stroke-linejoin="round"/>
<path d="M40.9028 7.55755L40.903 2" stroke="white" stroke-width="4" stroke-linecap="round" stroke-linejoin="round"/>
<path d="M40.9028 24.2305V40.9031" stroke="white" stroke-width="4" stroke-linecap="round" stroke-linejoin="round"/>
<path d="M40.9028 40.903L52.6922 52.6923" stroke="white" stroke-width="4" stroke-linecap="round" stroke-linejoin="round"/>
<path d="M73.1321 32.0138C75.6921 30.0951 77.646 27.4803 78.7606 24.4815C79.8753 21.4827 80.1036 18.2265 79.4183 15.1015C78.7331 11.9765 77.1632 9.11467 74.896 6.85743C72.6289 4.6002 69.7601 3.04292 66.6321 2.37141C63.5042 1.6999 60.249 1.94252 57.2552 3.07032C54.2613 4.19813 51.6551 6.16348 49.7476 8.73188" stroke="white" stroke-width="4" stroke-linecap="round" stroke-linejoin="round"/>
</svg>
