<svg width="67" height="75" viewBox="0 0 67 75" fill="none" xmlns="http://www.w3.org/2000/svg">
<path d="M33.375 74.1667C29.6049 74.1667 25.742 73.4868 21.7865 72.1271C17.8309 70.7674 14.2462 68.9132 11.0323 66.5646C7.8184 64.216 5.17683 61.4656 3.10758 58.3135C1.03833 55.1615 0.00247222 51.7931 0 48.2083V40.7917C0 40.05 0.339931 39.4938 1.01979 39.1229C1.69965 38.7521 2.34861 38.8139 2.96667 39.3083L11.4031 45.6125C12.2684 46.2924 12.7468 47.2046 12.8382 48.3493C12.9297 49.4939 12.575 50.4667 11.774 51.2677L9.08542 53.9562C10.8778 57.1083 13.7208 59.8278 17.6146 62.1146C21.5083 64.4014 25.5257 65.8538 29.6667 66.4719V33.375H22.25C21.1993 33.375 20.3192 33.019 19.6097 32.307C18.9001 31.595 18.5441 30.7149 18.5417 29.6667C18.5392 28.6184 18.8952 27.7383 19.6097 27.0263C20.3241 26.3143 21.2042 25.9583 22.25 25.9583H29.6667V21.601C27.5035 20.7976 25.7272 19.4527 24.3378 17.5664C22.9484 15.6801 22.2525 13.5329 22.25 11.125C22.25 8.03472 23.3316 5.40799 25.4948 3.24479C27.658 1.0816 30.2847 0 33.375 0C36.4653 0 39.092 1.0816 41.2552 3.24479C43.4184 5.40799 44.5 8.03472 44.5 11.125C44.5 13.5354 43.8053 15.6838 42.4159 17.5701C41.0265 19.4564 39.249 20.8 37.0833 21.601V25.9583H44.5C45.5507 25.9583 46.432 26.3143 47.144 27.0263C47.856 27.7383 48.2108 28.6184 48.2083 29.6667C48.2059 30.7149 47.8499 31.5962 47.1403 32.3107C46.4308 33.0252 45.5507 33.3799 44.5 33.375H37.0833V66.4719C41.2243 65.8538 45.2417 64.4014 49.1354 62.1146C53.0292 59.8278 55.8722 57.1083 57.6646 53.9562L54.976 51.2677C54.1726 50.4642 53.8166 49.4914 53.908 48.3493C53.9995 47.2071 54.4791 46.2948 55.3469 45.6125L63.7833 39.3083C64.4014 38.8139 65.0503 38.7521 65.7302 39.1229C66.4101 39.4938 66.75 40.05 66.75 40.7917V48.2083C66.75 51.7931 65.7141 55.1615 63.6424 58.3135C61.5707 61.4656 58.9291 64.216 55.7177 66.5646C52.5063 68.9132 48.9216 70.7674 44.9635 72.1271C41.0055 73.4868 37.1427 74.1667 33.375 74.1667ZM33.375 14.8333C34.4257 14.8333 35.307 14.4786 36.019 13.769C36.731 13.0595 37.0858 12.1782 37.0833 11.125C37.0809 10.0718 36.7249 9.19172 36.0153 8.48467C35.3058 7.77761 34.4257 7.42161 33.375 7.41667C32.3243 7.41172 31.4442 7.76772 30.7347 8.48467C30.0251 9.20161 29.6691 10.0817 29.6667 11.125C29.6642 12.1683 30.0202 13.0496 30.7347 13.769C31.4491 14.4885 32.3292 14.8432 33.375 14.8333Z" fill="white"/>
</svg>
