<svg width="14" height="25" viewBox="0 0 14 25" fill="none" xmlns="http://www.w3.org/2000/svg">
<path d="M3.05161 12.3044L12.9605 22.2133C13.2187 22.4715 13.349 22.7929 13.3513 23.1774C13.3538 23.562 13.2261 23.8914 12.9681 24.1657C12.6888 24.445 12.3555 24.5847 11.9684 24.5847C11.5813 24.5847 11.2507 24.445 10.9764 24.1657L0.615423 13.82C0.39955 13.6041 0.243043 13.3646 0.145901 13.1015C0.0485458 12.8383 -0.000132561 12.5725 -0.000132561 12.3044C-0.000132561 12.0363 0.0485458 11.7705 0.145901 11.5073C0.243043 11.2442 0.39955 11.0047 0.615423 10.7888L11.0005 0.403763C11.2799 0.124397 11.6065 -0.00999451 11.9805 0.000587463C12.3545 0.0111694 12.6811 0.156143 12.9605 0.435509C13.2187 0.714874 13.3531 1.04154 13.3637 1.41551C13.3743 1.78948 13.2399 2.11614 12.9605 2.39551L3.05161 12.3044Z" fill="white"/>
</svg>
